<?xml version="1.0" encoding="UTF-8" standalone="no"?>
<svg width="420" height="600" viewBox="0 0 420 600" xmlns="http://www.w3.org/2000/svg">
  <defs>
    <style>
      .box { fill: none; stroke: grey; stroke-width: 2; rx: 8; }
      .subbox { fill: none; stroke: grey; stroke-width: 1; rx: 2; }
      .title { font: bold 14px sans-serif; fill: grey; text-anchor: middle; }
      .label { font: 12px sans-serif; fill: grey; }
      .arrow { stroke: grey; stroke-width: 1; fill: none; marker-end: url(#arrowhead); }
    </style>
    <marker id="arrowhead" markerWidth="10" markerHeight="7" refX="10" refY="3.5" orient="auto">
      <polygon points="0 0, 10 3.5, 0 7" fill="grey"/>
    </marker>
  </defs>

  <!-- HEADER -->
  <rect class="box" x="100" y="20" width="220" height="80" />
  <text class="title" x="210" y="45">Header</text>
  <text class="label" x="120" y="65">Version</text>
  <text class="label" x="120" y="85">Directory →</text>

  <!-- DATA -->
  <rect class="box" x="100" y="120" width="220" height="140" />
  <text class="title" x="210" y="145">Data</text>
  <rect class="subbox" x="120" y="165" width="180" height="35" />
  <text class="label" x="130" y="187">File A (content)</text>
  <rect class="subbox" x="120" y="210" width="180" height="35" />
  <text class="label" x="130" y="232">File B (content)</text>

  <!-- DIRECTORY -->
  <rect class="box" x="100" y="280" width="220" height="280" />
  <text class="title" x="210" y="305">Directory</text>

  <!-- File A descriptor -->
  <rect class="subbox" x="120" y="330" width="180" height="70" />
  <text class="label" x="130" y="352">File A</text>
  <text class="label" x="130" y="370">Name / Type / Size</text>
  <text class="label" x="130" y="388">Section →</text>

  <!-- File B descriptor -->
  <rect class="subbox" x="120" y="400" width="180" height="70" />
  <text class="label" x="130" y="422">File B</text>
  <text class="label" x="130" y="440">Name / Type / Size</text>
  <text class="label" x="130" y="458">Section →</text>

  <!-- Subdir descriptor -->
  <rect class="subbox" x="120" y="470" width="180" height="70" />
  <text class="label" x="130" y="492">Subdir</text>
  <text class="label" x="130" y="510">Name</text>
  <text class="label" x="130" y="528">Child Count</text>

  <!-- ARROWS -->
  <!-- Header → Directory -->
  <path class="arrow" d="M100,60 H50 V320 H100" />
  <!-- File A desc → File A block -->
  <path class="arrow" d="M120,360 H70 V182 H120" />
  <!-- File B desc → File B block -->
  <path class="arrow" d="M120,430 H80 V227 H120" />
</svg>
